<svg id="93f91050-bb0d-48f3-89d8-282b7f363277" data-name="Layer 1" xmlns="http://www.w3.org/2000/svg" viewBox="0 0 425.20019 425.20019"><defs><style>.f419593d-d0e9-4120-b30a-4de54ac1271e{fill:none;}.\32 db1a90a-c72a-4341-8a13-a515b6654b42{fill:#231f20;}</style></defs><title>Atomos-Logo-Vertical-Black</title><rect class="f419593d-d0e9-4120-b30a-4de54ac1271e" width="425.20019" height="425.20019"/><path class="2db1a90a-c72a-4341-8a13-a515b6654b42" d="M292.625,264.77149c-23.04391,0-51.60351-7.6065-78.63041-20.9277-26.87109,13.3212-55.40619,20.9277-78.58639,20.9277-19.9385,0-34.4321-5.6699-41.9038-16.4053-22.459-32.5635,11.2075-93.64059,22.0771-111.59909C136.7583,101.63819,180.4165,49.27,213.97119,49c29.9077,0,70.8452,43.7031,96.3423,84.3691a22.91548,22.91548,0,0,1,1.68751,2.7227l.42769.6528c10.8467,17.981,44.5801,79.147,21.8281,111.62159-7.3359,10.7354-21.7617,16.4053-41.63179,16.4053Zm-68.63871-26.1494c23.9444,10.959,48.5645,17.1484,68.63871,17.1484,11.70119,0,27.13959-2.1836,34.29589-12.5137,13.5918-19.4658,2.5439-56.07949-14.4023-88.08149-9.2715,26.645-51.626,63.05809-88.5323,83.44679Zm-108.247-83.9409c-17.0586,32.09031-28.3555,68.9985-14.8521,88.5551,7.2451,10.3506,22.7744,12.5342,34.521,12.5342,20.1641,0,44.7847-6.1894,68.63819-17.1484-36.95219-20.5244-79.44-57.274-88.30709-83.9409Zm98.23189-35.80569c-22.00979.15869-80.61079.6079-90.22019,22.6851-7.5615,17.3959,41.0039,66.81589,90.24359,92.22359,49.46441-25.4077,98.29841-74.82769,90.6939-92.22359a10.34576,10.34576,0,0,0-.4971-1.0127l-1.3516-2.1831c-13.7265-18.9263-68.29879-19.33061-88.8686-19.4893Zm.2466-60.874c-21.73829.15669-52.45709,28.8281-76.19879,61.2793,19.6465-7.6065,48.2945-9.1817,75.95219-9.3843,27.32081.2026,55.94681,1.6875,75.7729,9.1811-24.03409-32.6757-54.4609-61.0761-75.5263-61.0761Z"/><path class="2db1a90a-c72a-4341-8a13-a515b6654b42" d="M213.99459,159.7661a9.42948,9.42948,0,1,0,9.4517,9.4302,9.46639,9.46639,0,0,0-9.4517-9.4302"/><path class="2db1a90a-c72a-4341-8a13-a515b6654b42" d="M47.8203,304.15529c-1.395,0-3.2397.5635-4.3652,3.331l-25.4746,63.6201h7.4262l7.2242-18.4316H62.9443l7.1328,18.4316h7.5176L52.0737,307.418C51.3994,305.91019,50.2964,304.15529,47.8203,304.15529ZM35.353,346.01269l12.4673-32.1816,12.333,32.1816Z"/><polygon class="2db1a90a-c72a-4341-8a13-a515b6654b42" points="82.815 311.56 101.359 311.56 101.359 371.106 107.908 371.106 107.908 311.56 126.451 311.56 126.451 304.921 82.815 304.921 82.815 311.56"/><path class="2db1a90a-c72a-4341-8a13-a515b6654b42" d="M171.9556,304.92089H160.7251c-11.769,0-18.0029,5.9404-18.0029,17.1475v32.2724c0,10.9815,6.2339,16.7656,18.0029,16.7656h11.2305c11.7705,0,17.9809-5.83,17.9809-16.8564v-32.1816C189.9365,310.86129,183.7261,304.92089,171.9556,304.92089Zm.1797,59.6592H160.6128c-5.1304,0-6.7056-.6309-8.5518-2.4092-1.9575-1.8662-2.7895-4.2988-2.7895-8.0791v-31.7764c0-3.9599.832-6.3691,2.813-8.3701,1.7778-1.7578,3.3076-2.3857,8.5283-2.3857h11.5225c5.3569,0,6.8193.6074,8.5522,2.3857,1.8901,1.9111,2.7002,4.4102,2.7002,8.3701v32.0254c0,3.8242-.7647,6.0518-2.7002,7.9444C179.0674,363.85839,177.4922,364.58009,172.1353,364.58009Z"/><path class="2db1a90a-c72a-4341-8a13-a515b6654b42" d="M274.98049,304.334l-.7871-.0879c-1.3047,0-3.1739.6748-4.5909,3.9355l-24.8447,53.2237-25.3174-53.042c-1.1035-2.2949-1.9365-4.1172-4.4345-4.1172-3.5323,0-3.5323,3.6006-3.5323,5.5352v61.3251H217.999v-50.5673l22.37109,46.8994c1.3721,2.9258,2.002,4.0947,4.3203,4.0947s3.42-1.9814,4.7481-4.8164l21.4912-45.8867v50.2763h6.5488l-.02149-63.3945A3.60737,3.60737,0,0,0,274.98049,304.334Z"/><path class="2db1a90a-c72a-4341-8a13-a515b6654b42" d="M327.55179,304.92089h-11.253c-11.7451,0-17.958,5.9404-17.958,17.1475v32.2724c0,10.9815,6.2129,16.7656,17.958,16.7656h11.253c11.747,0,17.9599-5.83,17.9599-16.8564v-32.1816C345.51169,310.86129,339.29879,304.92089,327.55179,304.92089Zm.1347,59.6592H316.209c-5.15431,0-6.70611-.6309-8.55081-2.4092-1.9365-1.8896-2.792-4.3203-2.792-8.0791v-31.7764c0-3.9599.8106-6.3691,2.792-8.3701,1.7549-1.7578,3.3311-2.3857,8.55081-2.3857h11.47749c5.3789,0,6.8408.6074,8.5733,2.3857,1.914,1.9111,2.7236,4.4102,2.7236,8.3701v32.0254c0,3.8242-.7656,6.0518-2.7236,7.9444C334.66209,363.85839,333.06539,364.58009,327.68649,364.58009Z"/><path class="2db1a90a-c72a-4341-8a13-a515b6654b42" d="M382.61909,311.55959h27.4561v-6.6387h-27.2988c-6.211,0-8.8653.8984-12.3535,4.0938-3.375,3.0166-4.83889,6.5947-4.83889,11.9736v5.2441c0,9.3155,6.48049,14.6739,17.79979,14.6739h9.5654c7.4043,0,10.4199,2.6093,10.4199,9.0009v6.0977c0,3.4658-.833,4.8623-2.3173,6.3242-1.80179,1.6436-3.3096,2.251-8.1026,2.251h-27.2763v6.5263h27.2089c6.2793,0,8.3936-.6308,12.084-3.624,3.3535-2.8789,4.8613-6.4355,4.8613-11.6357v-6.2774c0-9.7666-6.1425-15.3925-16.8779-15.3925h-9.5654c-5.624,0-5.7373-.0469-8.2139-1.8457-2.04689-1.4854-3.0371-3.669-3.0371-6.7061v-4.7715C372.20019,314.43849,375.44039,311.55959,382.61909,311.55959Z"/></svg>