<?xml version="1.0" encoding="UTF-8" standalone="no"?>
<!-- Created with Inkscape (http://www.inkscape.org/) -->
<svg
   xmlns:svg="http://www.w3.org/2000/svg"
   xmlns="http://www.w3.org/2000/svg"
   version="1.0"
   width="746.22046"
   height="220.03937"
   id="svg2">
  <defs
     id="defs4" />
  <g
     transform="translate(173.16717,-287.38996)"
     id="layer1">
    <g
       transform="translate(35.373639,35.380874)"
       id="g2502">
      <path
         d="M 270.20592,287.38996 L 270.20592,310.33897 L 294.58925,310.33897 L 294.58925,408.93309 L 270.20592,408.93309 L 270.20592,432.61421 L 351.24464,432.61421 L 351.24464,408.93309 L 329.37136,408.93309 L 329.37136,304.61666 C 329.37136,295.27868 324.3662,287.73372 309.64955,287.38996 L 270.20592,287.38996 z"
         id="path2587"
         style="fill:#000000;fill-opacity:1;fill-rule:nonzero;stroke:none" />
      <path
         d="M 270.20592,380.49185 L 270.20592,360.94933 L 231.44958,360.94933 L 231.44958,380.49185 L 270.20592,380.49185 z"
         id="path2591"
         style="fill:#000000;fill-opacity:1;fill-rule:nonzero;stroke:none" />
      <path
         d="M -147.25988,361.32727 C -147.25988,359.5792 -147.17024,353.96147 -146.40826,350.40557 C -144.5556,341.60546 -139.64009,338.00485 -128.68851,336.39113 C -122.20422,335.41998 -114.91312,335.07646 -102.10889,335.07646 C -90.24592,335.07646 -68.65651,336.39113 -55.12018,337.67604 L -55.12018,315.95216 C -70.52411,314.48797 -90.75391,313.72611 -105.12692,313.72611 C -126.29799,313.72611 -138.11613,314.93619 -148.0368,318.13351 C -163.1718,323.01914 -171.37428,334.82247 -172.37531,352.64668 C -172.74883,359.48955 -173.16717,367.07958 -173.16717,374.65443 C -173.16717,382.19964 -172.74883,389.78943 -172.37531,396.61736 C -171.37428,414.45663 -163.1718,426.2449 -148.0368,431.11559 C -138.11613,434.35773 -126.29799,435.53805 -105.12692,435.53805 C -90.75391,435.53805 -70.52411,434.79102 -55.12018,433.29694 L -55.12018,411.60295 C -68.65651,412.85797 -90.24592,414.20276 -102.10889,414.20276 C -114.91312,414.20276 -122.20422,413.84406 -128.68851,412.88797 C -139.64009,411.27437 -144.5556,407.6587 -146.40826,398.85847 C -147.17024,395.28763 -147.25988,389.68484 -147.25988,387.95171 L -147.25988,384.81427 L -57.31647,384.81427 L -57.31647,363.50862 L -147.25988,363.50862 L -147.25988,361.32727 z"
         id="path2597"
         style="fill:#000000;fill-opacity:1;fill-rule:nonzero;stroke:none" />
      <path
         d="M 130.37075,316.52003 C 137.79631,314.7569 155.62064,313.71105 165.58614,313.71105 C 182.45426,313.71105 198.44088,314.45808 218.04317,316.75896 L 218.04317,339.49893 C 198.0823,335.92797 183.78399,334.70294 163.83807,334.70294 C 155.79993,334.70294 148.59848,334.9867 141.99467,335.76374 C 132.65669,336.86923 129.51913,341.217 129.51913,348.59774 C 129.51913,355.97847 132.65669,360.32624 141.99467,361.41691 C 149.07659,362.2536 156.83085,362.49265 165.58614,362.49265 L 165.58614,362.52253 C 175.79068,362.7317 190.34299,363.76261 196.88704,365.34633 C 215.39865,369.81374 222.48057,382.43857 222.48057,399.008 C 222.48057,415.60707 215.39865,428.20226 196.88704,432.66943 C 189.46148,434.47726 171.62221,435.53805 161.67165,435.53805 C 140.62012,435.53805 126.21722,434.77607 106.48046,432.52002 L 106.48046,409.76523 C 126.93437,413.41078 140.82929,414.54628 161.67165,414.54628 C 170.412,414.54628 178.16626,414.29228 185.24818,413.42572 C 194.57122,412.2754 197.73866,408.00222 197.73866,400.2629 C 197.73866,392.53865 194.57122,388.26547 185.24818,387.10009 C 178.16626,386.21858 170.412,385.97953 161.67165,385.97953 L 161.67165,385.96459 C 151.46711,385.72554 136.89986,384.72451 130.37075,383.20067 C 111.82926,378.80796 104.76228,366.15314 104.76228,349.85276 C 104.76228,333.55238 111.82926,320.9125 130.37075,316.52003 z"
         id="path2601"
         style="fill:#000000;fill-opacity:1;fill-rule:nonzero;stroke:none" />
      <path
         d="M -43.3814,374.64846 C -43.3814,367.07349 -42.96306,358.36302 -42.58954,351.52015 C -41.60345,333.68087 -33.38602,321.92249 -18.23609,317.0071 C -8.31542,313.79471 3.48779,312.59945 24.65885,312.59945 C 45.82992,312.59945 57.63312,313.79471 67.56873,317.0071 C 82.68879,321.92249 90.92115,333.68087 91.90724,351.52015 C 92.28076,358.36302 92.6991,367.07349 92.6991,374.64846 C 92.6991,382.19366 92.28076,390.90413 91.90724,397.74688 C 90.92115,415.57121 82.68879,427.35948 67.56873,432.26005 C 57.63312,435.47231 45.82992,436.66758 24.65885,436.66758 C 3.48779,436.66758 -8.31542,435.47231 -18.23609,432.26005 C -33.38602,427.35948 -41.60345,415.57121 -42.58954,397.74688 C -42.96306,390.90413 -43.3814,382.19366 -43.3814,374.64846 M -16.72707,396.92514 C -15.87545,405.47138 -12.08049,410.35689 -3.10109,412.98646 C 2.47181,414.62995 12.99011,415.37698 24.65885,415.37698 C 36.31265,415.37698 46.84589,414.62995 52.4188,412.98646 C 61.3982,410.35689 65.20809,405.47138 66.04477,396.92514 C 66.85158,388.8123 66.91134,382.73141 66.91134,374.64846 C 66.91134,366.52068 66.85158,360.46967 66.04477,352.32695 C 65.20809,343.81071 61.3982,338.8952 52.4188,336.28057 C 46.84589,334.62214 36.31265,333.90499 24.65885,333.90499 C 12.99011,333.90499 2.47181,334.62214 -3.10109,336.28057 C -12.08049,338.8952 -15.87545,343.81071 -16.72707,352.32695 C -17.53387,360.46967 -17.59363,366.52068 -17.59363,374.64846 C -17.59363,382.73141 -17.53387,388.8123 -16.72707,396.92514 z"
         id="path2605"
         style="fill:#000000;fill-opacity:1;fill-rule:nonzero;stroke:none" />
      <path
         d="M 398.86851,316.41534 C 391.8165,316.41534 386.11851,322.15949 386.11851,329.19659 L 386.11851,419.85284 C 386.11853,426.91971 391.81647,432.63409 398.86851,432.63409 L 489.52476,432.63409 C 496.57683,432.6341 502.30601,426.9197 502.30601,419.85284 L 502.30601,329.19659 C 502.30603,322.15949 496.5768,316.41534 489.52476,316.41534 L 398.86851,316.41534 z M 443.96226,338.29034 L 444.71226,338.29034 C 469.34959,338.29034 483.02479,350.1179 483.02476,371.25909 C 483.02476,395.02984 465.99617,411.13408 440.80601,411.13409 L 439.80601,411.13409 L 426.33726,410.79034 L 425.89976,410.79034 C 422.00022,410.79034 420.37139,410.79582 416.68101,410.91534 C 412.76653,410.91534 411.45011,411.02937 407.43101,411.13409 L 406.02476,406.47784 C 411.56778,406.04456 413.43285,405.59008 414.83726,403.94659 C 417.1232,401.55607 417.77475,396.66631 417.77476,383.04034 L 417.77476,363.41534 C 417.77476,350.99969 417.33123,347.80472 415.49351,345.72784 C 414.29825,344.21882 412.33399,343.67196 406.46226,343.13409 L 408.18101,338.82159 C 412.42419,339.15029 415.8158,339.22784 420.80601,339.22784 L 421.11851,339.22784 L 443.96226,338.29034 z M 443.61851,343.04034 C 441.64632,343.04034 440.02636,343.23628 436.64976,344.10284 L 436.21226,350.10284 C 435.77898,355.88492 435.33178,363.82647 435.21226,366.66534 L 435.11851,374.22784 C 435.11851,376.06555 435.11854,377.90632 435.11851,379.75909 C 435.11851,402.78269 436.10994,406.25909 443.08726,406.25909 C 454.87552,406.25909 462.96228,392.41281 462.96226,372.22784 C 462.96226,353.80587 455.73544,343.04034 443.61851,343.04034 z"
         id="path2609"
         style="fill:#000000;fill-opacity:1;fill-rule:nonzero;stroke:none" />
    </g>
  </g>
</svg>
