<svg xmlns="http://www.w3.org/2000/svg" viewBox="0 0 35.35 35.35"><g id="Layer_2" data-name="Layer 2"><g id="Layer_1-2" data-name="Layer 1"><path d="M17.67,35.35A1.63,1.63,0,0,1,16,33.71c0-3.23-11.17-14.4-14.4-14.4a1.64,1.64,0,1,1,0-3.27C4.87,16,16,4.87,16,1.64a1.64,1.64,0,1,1,3.27,0c0,3.23,11.17,14.4,14.4,14.4a1.64,1.64,0,1,1,0,3.27c-3.23,0-14.4,11.17-14.4,14.4A1.63,1.63,0,0,1,17.67,35.35ZM5.93,17.67A41.71,41.71,0,0,1,17.67,29.42,41.87,41.87,0,0,1,29.42,17.67,41.71,41.71,0,0,1,17.67,5.93,41.54,41.54,0,0,1,5.93,17.67Z"/></g></g></svg>