<svg xmlns="http://www.w3.org/2000/svg" viewBox="0 0 140.39 432.26"><g id="Layer_2" data-name="Layer 2"><g id="Layer_1-2" data-name="Layer 1"><path d="M139.2,214.7c-2.35,0-10.49-8.13-10.49-10.48a1.19,1.19,0,0,0-2.38,0c0,2.11-6.54,8.86-9.58,10.22H66.22V208a1.46,1.46,0,0,0-2.91,0v6.41H27.6a62.91,62.91,0,0,0,12.69-6.2c7.73-4.89,14.46-11,21.54-16.77,6.86-5.56,15.57-12.35,24.88-12.06,4.18.13,8.56,2,10.61,5.83A12.79,12.79,0,0,1,97.49,196c-1.53,3.7-4.8,7.1-8.91,7.73s-8.15-2.8-7-7.15a1,1,0,0,0-1.73-.73c-2.36,3.86.47,8.7,4.31,10.31,4.76,2,10.32-.68,13.47-4.35,5.48-6.37,5.78-17.08-1.43-22.31-8.77-6.36-19.94-1.45-27.82,3.86-2.94,2-5.72,4.18-8.46,6.43a33.34,33.34,0,0,0,3.2-11.24c1-8.1-3.68-16.55-8.35-22.61a76.73,76.73,0,0,0-7.67-8.43c-.63-4.35-1.47-8.67-2.46-12.9-4.09-17.57-10.89-34.28-16.68-51.31a253.37,253.37,0,0,1-7.51-26A48.49,48.49,0,0,1,44,48.61c9.85-.76,21,3.63,24.15,13.79a13.61,13.61,0,0,1-2.6,13C62.5,79,58,81.28,53.23,80.19a.16.16,0,0,0-.08.31c7.09,2.16,14.25-3.13,16.3-9.86,2.25-7.39-2.16-15-8.11-19.18-7.7-5.44-17.84-5.05-26.49-2.4a54,54,0,0,0-14.68,7.08A133.43,133.43,0,0,1,17,31a81.13,81.13,0,0,1,.86-14c.52-3.45,1.28-6.91,3.25-9.84C23,4.38,25.89,2.12,29.34,3c2.15.58,4.59,2.35,4.53,4.77,0,2.71,4.13,2.7,4.21,0,.23-7.2-8.52-9.49-13.95-6.59-6.76,3.62-7.65,13.57-8.2,20.3-1,12.14.4,23.92,3,35.48a53.79,53.79,0,0,0-6.06,5.1C7.26,67.65,2.75,74.62.9,82.36a35.87,35.87,0,0,0,3,24c8,16.63,24.24,26.58,37.69,38.32,1.54,1.34,3.08,2.73,4.58,4.18a93.25,93.25,0,0,1-1.25,33.7c-3.64,15.34-14.39,32-31.9,31.85a3.32,3.32,0,1,0-.28,3.44c17.68-.3,28.52,16.43,32.18,31.85a93.26,93.26,0,0,1,1.25,33.7c-1.5,1.45-3,2.84-4.58,4.18C28.13,299.32,11.9,309.28,3.89,325.9a35.87,35.87,0,0,0-3,24c1.85,7.74,6.36,14.72,12,20.26a52.75,52.75,0,0,0,6.06,5.1c-2.63,11.56-4,23.34-3,35.49.55,6.72,1.44,16.67,8.2,20.29,5.43,2.9,14.18.62,14-6.58-.08-2.7-4.26-2.72-4.21,0,.06,2.41-2.38,4.18-4.53,4.76-3.45.92-6.37-1.34-8.22-4.09-2-2.93-2.73-6.39-3.25-9.83a81.31,81.31,0,0,1-.86-14,133.32,133.32,0,0,1,3.16-25.14,54.22,54.22,0,0,0,14.68,7.07c8.65,2.65,18.79,3.05,26.49-2.4,6-4.2,10.36-11.79,8.11-19.18-2-6.73-9.21-12-16.3-9.86a.16.16,0,0,0,.08.31c4.76-1.09,9.27,1.15,12.31,4.77a13.59,13.59,0,0,1,2.6,13C65,380,53.84,384.41,44,383.65a48.39,48.39,0,0,1-23.57-8.72,252.47,252.47,0,0,1,7.51-26c5.79-17,12.59-33.75,16.68-51.32,1-4.23,1.83-8.55,2.46-12.9a75.83,75.83,0,0,0,7.67-8.43c4.67-6.06,9.36-14.51,8.35-22.61a33.34,33.34,0,0,0-3.2-11.24c2.74,2.25,5.52,4.44,8.46,6.43,7.88,5.31,19.05,10.23,27.82,3.86,7.21-5.23,6.91-15.94,1.43-22.31-3.15-3.67-8.71-6.33-13.47-4.34-3.84,1.6-6.67,6.44-4.31,10.3a1,1,0,0,0,1.73-.73c-1.12-4.34,2.86-7.79,7-7.15s7.38,4,8.91,7.73A12.79,12.79,0,0,1,97.32,247c-2,3.83-6.43,5.7-10.61,5.83-9.31.29-18-6.5-24.88-12.06C54.75,235.05,48,228.91,40.29,224a63.31,63.31,0,0,0-14.06-6.67H63.31v6.41a1.46,1.46,0,0,0,2.91,0v-6.41h50.53c3,1.36,9.58,8.11,9.58,10.22a1.19,1.19,0,1,0,2.38,0c0-2.35,8.14-10.48,10.49-10.48a1.2,1.2,0,0,0,0-2.39Zm-122-92.86c-6-6.08-11.35-13.1-14-21.28a33.87,33.87,0,0,1,1-24,46,46,0,0,1,15-18.38c5.56,23.57,16.2,46.3,22.56,69.54a160.92,160.92,0,0,1,4,18.56C36.62,137.78,26,130.79,17.17,121.84ZM41.8,304.52c-6.36,23.24-17,46-22.56,69.53a46,46,0,0,1-15-18.38,33.87,33.87,0,0,1-1-24c2.66-8.18,8-15.2,14-21.28C26,301.47,36.62,294.48,45.8,286A161.54,161.54,0,0,1,41.8,304.52ZM33.93,206.9c6.2-5.87,9.85-13.89,12-22.06,2.91-11.33,3-23.15,1.55-34.75,5.63,5.6,10.65,12,13.25,19.48a20.73,20.73,0,0,1,.93,8.19c-.45,4.37-2.7,12.35-12.07,20.72-2.31,1.89-4.67,3.73-7.14,5.42l-1.28.86a86.53,86.53,0,0,1-8.82,4.85q-2.1,1-4.27,1.75A32.78,32.78,0,0,0,33.93,206.9ZM32.3,222.65a86.53,86.53,0,0,1,8.82,4.85l1.28.86c2.47,1.7,4.83,3.53,7.14,5.42,9.37,8.37,11.62,16.35,12.07,20.72a20.73,20.73,0,0,1-.93,8.19c-2.6,7.48-7.62,13.88-13.25,19.48,1.46-11.6,1.36-23.42-1.55-34.75-2.1-8.16-5.75-16.19-12-22.06A33.26,33.26,0,0,0,28,220.9C29.48,221.43,30.9,222,32.3,222.65Zm95.22,1.8A30.14,30.14,0,0,0,119,215.9a30.31,30.31,0,0,0,8.55-8.56,30.31,30.31,0,0,0,8.55,8.56A30.14,30.14,0,0,0,127.52,224.45Z"/></g></g></svg>