<svg xmlns="http://www.w3.org/2000/svg" viewBox="0 0 441.5 81.46"><g id="Layer_2" data-name="Layer 2"><g id="Layer_1-2" data-name="Layer 1"><path d="M440.05,10.81c-2,0-9.35-7.35-9.35-9.36a1.46,1.46,0,0,0-2.91,0c0,2-7.34,9.36-9.35,9.36H23.06c-2,0-9.35-7.35-9.35-9.36a1.46,1.46,0,0,0-2.91,0c0,2-7.34,9.36-9.35,9.36a1.46,1.46,0,0,0,0,2.91c2,0,9.35,7.33,9.35,9.34a1.46,1.46,0,1,0,2.91,0c0-2,7.34-9.34,9.35-9.34H418.44c2,0,9.35,7.33,9.35,9.34a1.46,1.46,0,1,0,2.91,0c0-2,7.34-9.34,9.35-9.34a1.46,1.46,0,0,0,0-2.91ZM12.26,19.52A28.63,28.63,0,0,0,5,12.26,28.63,28.63,0,0,0,12.26,5a28.47,28.47,0,0,0,7.26,7.26A28.47,28.47,0,0,0,12.26,19.52Zm417,0A28.31,28.31,0,0,0,422,12.26,28.31,28.31,0,0,0,429.24,5a28.63,28.63,0,0,0,7.26,7.26A28.63,28.63,0,0,0,429.24,19.52Z"/><path d="M226.92,74a1.1,1.1,0,0,0-.88-.74l-3-.44-1.33-2.7a1.14,1.14,0,0,0-2,0l-1.33,2.7-3,.44a1.09,1.09,0,0,0-.6,1.86l2.15,2.1-.51,3a1.07,1.07,0,0,0,.44,1.06,1.09,1.09,0,0,0,1.15.09l2.66-1.4,2.67,1.4a1.11,1.11,0,0,0,1.15-.09,1.09,1.09,0,0,0,.43-1.06l-.51-3,2.16-2.1A1.11,1.11,0,0,0,226.92,74Z"/></g></g></svg>