<?xml version="1.0" encoding="UTF-8"?><svg id="Layer_2" xmlns="http://www.w3.org/2000/svg" viewBox="0 0 555.86 169.9"><defs><style>.cls-1{fill:#fff;}</style></defs><g id="Layer_1-2"><g><path class="cls-1" d="M222.17,169.74h-1.31l-2.3-7.65c-.11-.34-.23-.77-.37-1.28s-.21-.83-.21-.93c-.11,.69-.3,1.44-.55,2.26l-2.23,7.6h-1.31l-3.04-11.42h1.41l1.8,7.05c.25,.99,.43,1.89,.55,2.69,.14-.95,.35-1.88,.62-2.8l2.05-6.95h1.41l2.15,7.01c.25,.81,.46,1.72,.63,2.73,.1-.74,.29-1.64,.56-2.7l1.8-7.04h1.41l-3.05,11.42Z"/><path class="cls-1" d="M234.35,169.74h-6.37v-11.42h6.37v1.18h-5.04v3.68h4.73v1.17h-4.73v4.2h5.04v1.19Z"/><path class="cls-1" d="M246.95,163.92c0,1.89-.51,3.33-1.54,4.32-1.02,1-2.5,1.5-4.42,1.5h-3.16v-11.42h3.5c1.78,0,3.16,.49,4.14,1.48s1.48,2.36,1.48,4.12Zm-1.41,.05c0-1.49-.37-2.61-1.12-3.37-.75-.75-1.86-1.13-3.33-1.13h-1.93v9.12h1.62c1.58,0,2.77-.39,3.57-1.17,.8-.78,1.2-1.93,1.2-3.46Z"/><path class="cls-1" d="M259.58,163.92c0,1.89-.51,3.33-1.54,4.32-1.02,1-2.5,1.5-4.42,1.5h-3.16v-11.42h3.5c1.78,0,3.16,.49,4.14,1.48s1.48,2.36,1.48,4.12Zm-1.41,.05c0-1.49-.37-2.61-1.12-3.37-.75-.75-1.86-1.13-3.33-1.13h-1.93v9.12h1.62c1.58,0,2.77-.39,3.57-1.17,.8-.78,1.2-1.93,1.2-3.46Z"/><path class="cls-1" d="M263.08,169.74v-11.42h1.33v11.42h-1.33Z"/><path class="cls-1" d="M277.43,169.74h-1.52l-6.24-9.59h-.06c.08,1.12,.12,2.16,.12,3.09v6.49h-1.23v-11.42h1.5l6.23,9.55h.06c-.01-.14-.03-.59-.07-1.36-.04-.76-.05-1.31-.04-1.64v-6.55h1.24v11.42Z"/><path class="cls-1" d="M286.55,163.76h3.88v5.55c-.6,.19-1.22,.34-1.84,.44s-1.35,.15-2.17,.15c-1.73,0-3.08-.51-4.04-1.54-.96-1.03-1.45-2.47-1.45-4.32,0-1.19,.24-2.23,.71-3.12,.48-.89,1.16-1.58,2.06-2.05,.9-.47,1.95-.71,3.15-.71s2.35,.22,3.41,.67l-.52,1.17c-1.03-.44-2.02-.66-2.98-.66-1.39,0-2.48,.41-3.26,1.24s-1.17,1.98-1.17,3.45c0,1.54,.38,2.71,1.13,3.51s1.86,1.2,3.32,1.2c.79,0,1.57-.09,2.32-.27v-3.52h-2.55v-1.19Z"/><path class="cls-1" d="M300.58,169.74h-1.33v-11.42h6.37v1.18h-5.04v4.18h4.73v1.18h-4.73v4.88Z"/><path class="cls-1" d="M308.47,169.74v-11.42h1.33v11.42h-1.33Z"/><path class="cls-1" d="M313.89,169.74v-11.42h1.33v10.22h5.04v1.2h-6.37Z"/><path class="cls-1" d="M328.21,169.74l-3.88-10.12h-.06c.07,.8,.11,1.76,.11,2.86v7.27h-1.23v-11.42h2l3.62,9.42h.06l3.65-9.42h1.98v11.42h-1.33v-7.36c0-.84,.04-1.76,.11-2.75h-.06l-3.91,10.11h-1.07Z"/><path class="cls-1" d="M345.01,166.7c0,1.01-.37,1.79-1.09,2.35-.73,.56-1.72,.84-2.97,.84-1.35,0-2.4-.17-3.12-.52v-1.28c.47,.2,.98,.35,1.53,.47,.55,.12,1.1,.17,1.64,.17,.88,0,1.55-.17,2-.5,.45-.34,.67-.8,.67-1.4,0-.4-.08-.72-.24-.97-.16-.25-.42-.49-.8-.7-.37-.21-.94-.46-1.7-.73-1.06-.38-1.82-.83-2.28-1.35-.46-.52-.68-1.2-.68-2.04,0-.88,.33-1.58,.99-2.1,.66-.52,1.54-.78,2.62-.78s2.18,.21,3.13,.62l-.41,1.16c-.94-.4-1.86-.59-2.75-.59-.7,0-1.25,.15-1.65,.45-.4,.3-.59,.72-.59,1.26,0,.4,.07,.72,.22,.97,.15,.25,.39,.48,.74,.7,.35,.21,.88,.44,1.59,.7,1.2,.43,2.02,.89,2.47,1.38,.45,.49,.68,1.12,.68,1.91Z"/></g><g><g><path class="cls-1" d="M116.37,104.33c.85,.32,1.73,.78,2.62,1.38,.73,.47,1.3,.7,1.7,.7,.3,0,.53-.17,.7-.52,.17-.35,.3-.91,.4-1.68h1.15c-.17,1.93-.25,5.33-.25,10.2h-1.15c-.2-2.7-.98-4.97-2.33-6.83-1.35-1.85-3.31-2.77-5.88-2.77-1.8,0-3.27,.54-4.4,1.62-1.13,1.08-1.7,2.47-1.7,4.17,0,1.27,.29,2.37,.88,3.3,.58,.93,1.33,1.73,2.23,2.4,.9,.67,2.18,1.52,3.85,2.55l1.45,.9c2.1,1.3,3.76,2.44,4.97,3.42s2.19,2.11,2.93,3.38c.73,1.27,1.1,2.75,1.1,4.45,0,3.03-1,5.38-3,7.02-2,1.65-4.53,2.48-7.6,2.48-1.6,0-2.91-.17-3.93-.5-1.02-.33-1.99-.78-2.92-1.35-.73-.47-1.3-.7-1.7-.7-.3,0-.53,.18-.7,.53-.17,.35-.3,.91-.4,1.67h-1.15c.13-1.83,.2-5.83,.2-12h1.15c.23,3.37,1.07,6.1,2.5,8.2,1.43,2.1,3.63,3.15,6.6,3.15,1.8,0,3.33-.56,4.6-1.68,1.27-1.12,1.9-2.77,1.9-4.97,0-1.87-.62-3.45-1.88-4.75s-3.22-2.77-5.92-4.4c-1.97-1.2-3.56-2.27-4.78-3.2s-2.21-2.06-2.97-3.38c-.77-1.32-1.15-2.86-1.15-4.62,0-2.8,.9-4.94,2.7-6.43,1.8-1.48,4.03-2.22,6.7-2.22,1.47,0,2.62,.16,3.47,.47Z"/><path class="cls-1" d="M158.14,139.8c-2.27-.1-6.08-.15-11.45-.15-6.4,0-11.23,.05-14.5,.15v-1c1.2-.07,2.07-.2,2.62-.4,.55-.2,.92-.58,1.12-1.15,.2-.57,.3-1.48,.3-2.75v-24.8c0-1.27-.1-2.18-.3-2.75-.2-.57-.58-.95-1.12-1.15-.55-.2-1.43-.33-2.62-.4v-1c3.27,.1,8.1,.15,14.5,.15,4.9,0,8.38-.05,10.45-.15-.23,2.2-.35,4.17-.35,5.9,0,1.3,.05,2.33,.15,3.1h-1.15c-.23-2.17-.53-3.77-.9-4.83-.37-1.05-.98-1.82-1.85-2.3-.87-.48-2.18-.72-3.95-.72h-4.15c-1.2,0-2.08,.09-2.62,.27-.55,.18-.93,.56-1.12,1.12-.2,.57-.3,1.48-.3,2.75v11.8h3.3c1.17,0,2.07-.28,2.7-.83s1.06-1.2,1.28-1.95,.39-1.69,.53-2.83l.15-1h1.15c-.1,1.4-.15,2.97-.15,4.7v2.4c0,1.7,.1,4.07,.3,7.1h-1.15c-.03-.23-.13-1.04-.3-2.42-.17-1.38-.62-2.42-1.38-3.12s-1.79-1.05-3.12-1.05h-3.3v12c0,1.27,.1,2.18,.3,2.75,.2,.57,.57,.94,1.12,1.12,.55,.18,1.42,.27,2.62,.27h3.65c2.07,0,3.64-.27,4.73-.83,1.08-.55,1.88-1.43,2.38-2.65s.87-3.01,1.1-5.38h1.15c-.1,.9-.15,2.1-.15,3.6,0,1.9,.12,4.03,.35,6.4Z"/><path class="cls-1" d="M187.19,104.55c1.4,.57,2.77,1.37,4.1,2.4,.37,.3,.68,.45,.95,.45,.67,0,1.1-1,1.3-3h1.15c-.13,2.17-.2,6-.2,11.5h-1.15c-.37-2.17-.7-3.72-1-4.67s-.8-1.86-1.5-2.72c-1-1.3-2.28-2.28-3.83-2.93-1.55-.65-3.22-.97-5.02-.97-2.17,0-4.06,.72-5.68,2.15s-2.88,3.47-3.77,6.12c-.9,2.65-1.35,5.76-1.35,9.32s.48,6.75,1.45,9.35c.97,2.6,2.31,4.58,4.03,5.92,1.72,1.35,3.66,2.03,5.83,2.03,1.67,0,3.28-.32,4.85-.95,1.57-.63,2.8-1.58,3.7-2.85,.67-.93,1.15-1.93,1.45-3,.3-1.07,.58-2.7,.85-4.9h1.15c0,5.73,.07,9.73,.2,12h-1.15c-.1-1.07-.24-1.83-.42-2.28-.18-.45-.44-.67-.78-.67-.27,0-.62,.13-1.05,.4-1.5,1.07-2.93,1.88-4.3,2.42-1.37,.55-3.02,.83-4.95,.83-3.17,0-5.94-.72-8.33-2.15-2.38-1.43-4.23-3.51-5.55-6.22-1.32-2.72-1.98-5.96-1.98-9.73s.68-6.92,2.03-9.75c1.35-2.83,3.23-5.03,5.65-6.6,2.42-1.57,5.16-2.35,8.22-2.35,2,0,3.7,.28,5.1,.85Z"/><path class="cls-1" d="M233.94,137.3c-.77,1.13-1.53,1.95-2.3,2.45-.77,.5-1.78,.75-3.05,.75-1.37,0-2.49-.4-3.38-1.2s-1.54-2.2-1.97-4.2l-1.1-5c-.4-1.73-.78-3.07-1.12-4-.35-.93-.88-1.68-1.58-2.25-.7-.57-1.68-.85-2.95-.85h-4.75v11.5c0,1.27,.1,2.18,.3,2.75s.58,.95,1.12,1.15,1.42,.33,2.62,.4v1c-1.53-.1-3.65-.15-6.35-.15-2.87,0-5,.05-6.4,.15v-1c1.2-.07,2.08-.2,2.62-.4s.92-.58,1.12-1.15,.3-1.48,.3-2.75v-24.8c0-1.27-.1-2.18-.3-2.75-.2-.57-.58-.95-1.12-1.15s-1.42-.33-2.62-.4v-1c1.4,.1,3.43,.15,6.1,.15l5.4-.05c.63-.03,1.35-.05,2.15-.05,3.87,0,6.84,.81,8.92,2.43,2.08,1.62,3.12,3.71,3.12,6.27,0,1.3-.31,2.61-.92,3.92-.62,1.32-1.65,2.5-3.1,3.55-1.45,1.05-3.34,1.76-5.67,2.12l.6,.1c2.2,.37,3.8,1.03,4.8,2s1.73,2.5,2.2,4.6l1.25,5.1c.33,1.53,.68,2.6,1.05,3.2,.37,.6,.87,.9,1.5,.9,.57,0,1.04-.15,1.42-.45,.38-.3,.83-.78,1.33-1.45l.75,.55Zm-20.83-31.55c-.52,.23-.88,.65-1.08,1.25-.2,.6-.3,1.5-.3,2.7v12.3h3.35c3.3,0,5.57-.73,6.8-2.2,1.23-1.47,1.85-3.5,1.85-6.1,0-2.73-.65-4.8-1.95-6.2-1.3-1.4-3.42-2.1-6.35-2.1-1.03,0-1.81,.12-2.33,.35Z"/><path class="cls-1" d="M264.39,139.8c-2.27-.1-6.08-.15-11.45-.15-6.4,0-11.23,.05-14.5,.15v-1c1.2-.07,2.07-.2,2.62-.4,.55-.2,.92-.58,1.12-1.15,.2-.57,.3-1.48,.3-2.75v-24.8c0-1.27-.1-2.18-.3-2.75-.2-.57-.58-.95-1.12-1.15-.55-.2-1.43-.33-2.62-.4v-1c3.27,.1,8.1,.15,14.5,.15,4.9,0,8.38-.05,10.45-.15-.23,2.2-.35,4.17-.35,5.9,0,1.3,.05,2.33,.15,3.1h-1.15c-.23-2.17-.53-3.77-.9-4.83-.37-1.05-.98-1.82-1.85-2.3-.87-.48-2.18-.72-3.95-.72h-4.15c-1.2,0-2.08,.09-2.62,.27-.55,.18-.93,.56-1.12,1.12-.2,.57-.3,1.48-.3,2.75v11.8h3.3c1.17,0,2.07-.28,2.7-.83s1.06-1.2,1.28-1.95,.39-1.69,.53-2.83l.15-1h1.15c-.1,1.4-.15,2.97-.15,4.7v2.4c0,1.7,.1,4.07,.3,7.1h-1.15c-.03-.23-.13-1.04-.3-2.42-.17-1.38-.62-2.42-1.38-3.12s-1.79-1.05-3.12-1.05h-3.3v12c0,1.27,.1,2.18,.3,2.75,.2,.57,.57,.94,1.12,1.12,.55,.18,1.42,.27,2.62,.27h3.65c2.07,0,3.64-.27,4.73-.83,1.08-.55,1.88-1.43,2.38-2.65s.87-3.01,1.1-5.38h1.15c-.1,.9-.15,2.1-.15,3.6,0,1.9,.12,4.03,.35,6.4Z"/><path class="cls-1" d="M299.04,110.8c0,1.67,.05,3.03,.15,4.1h-1.15c-.27-2.57-.6-4.47-1-5.72-.4-1.25-1.1-2.17-2.1-2.75s-2.53-.88-4.6-.88h-2.7v28.45c0,1.4,.13,2.42,.4,3.05,.27,.63,.73,1.07,1.4,1.3,.67,.23,1.75,.38,3.25,.45v1c-1.73-.1-4.18-.15-7.35-.15-3.33,0-5.8,.05-7.4,.15v-1c1.5-.07,2.58-.22,3.25-.45,.67-.23,1.13-.67,1.4-1.3,.27-.63,.4-1.65,.4-3.05v-28.45h-2.7c-2.07,0-3.6,.29-4.6,.88s-1.7,1.5-2.1,2.75-.73,3.16-1,5.72h-1.15c.1-1.07,.15-2.43,.15-4.1,0-1.9-.12-4.03-.35-6.4,2.77,.1,7.47,.15,14.1,.15s11.28-.05,14.05-.15c-.23,2.37-.35,4.5-.35,6.4Z"/><path class="cls-1" d="M333.29,138.8v1c-1.33-.1-3.12-.15-5.35-.15-2.87,0-5,.05-6.4,.15v-1c1.27-.07,2.17-.23,2.72-.48,.55-.25,.83-.71,.83-1.38,0-.57-.2-1.35-.6-2.35l-3.05-8.2h-12.1l-2.05,5.3c-.67,1.8-1,3.17-1,4.1,0,1.03,.36,1.78,1.08,2.25,.72,.47,1.81,.72,3.27,.75v1c-1.9-.1-3.82-.15-5.75-.15-1.5,0-2.75,.05-3.75,.15v-1c1.67-.4,2.98-1.85,3.95-4.35l11.75-30.3h.8l12.2,31.45c.8,2.07,1.95,3.13,3.45,3.2Zm-12.25-13.4l-5.6-14.95-5.7,14.95h11.3Z"/><path class="cls-1" d="M367.99,137.3c-.77,1.13-1.53,1.95-2.3,2.45-.77,.5-1.78,.75-3.05,.75-1.37,0-2.49-.4-3.38-1.2-.88-.8-1.54-2.2-1.98-4.2l-1.1-5c-.4-1.73-.78-3.07-1.12-4-.35-.93-.88-1.68-1.58-2.25-.7-.57-1.68-.85-2.95-.85h-4.75v11.5c0,1.27,.1,2.18,.3,2.75,.2,.57,.57,.95,1.12,1.15,.55,.2,1.42,.33,2.62,.4v1c-1.53-.1-3.65-.15-6.35-.15-2.87,0-5,.05-6.4,.15v-1c1.2-.07,2.07-.2,2.62-.4,.55-.2,.92-.58,1.12-1.15,.2-.57,.3-1.48,.3-2.75v-24.8c0-1.27-.1-2.18-.3-2.75-.2-.57-.58-.95-1.12-1.15-.55-.2-1.43-.33-2.62-.4v-1c1.4,.1,3.43,.15,6.1,.15l5.4-.05c.63-.03,1.35-.05,2.15-.05,3.87,0,6.84,.81,8.92,2.43s3.12,3.71,3.12,6.27c0,1.3-.31,2.61-.92,3.92-.62,1.32-1.65,2.5-3.1,3.55-1.45,1.05-3.34,1.76-5.67,2.12l.6,.1c2.2,.37,3.8,1.03,4.8,2s1.73,2.5,2.2,4.6l1.25,5.1c.33,1.53,.68,2.6,1.05,3.2,.37,.6,.87,.9,1.5,.9,.57,0,1.04-.15,1.42-.45,.38-.3,.83-.78,1.33-1.45l.75,.55Zm-20.83-31.55c-.52,.23-.88,.65-1.07,1.25-.2,.6-.3,1.5-.3,2.7v12.3h3.35c3.3,0,5.57-.73,6.8-2.2,1.23-1.47,1.85-3.5,1.85-6.1,0-2.73-.65-4.8-1.95-6.2-1.3-1.4-3.42-2.1-6.35-2.1-1.03,0-1.81,.12-2.33,.35Z"/><path class="cls-1" d="M385.24,105.4c-1.2,.07-2.08,.2-2.62,.4-.55,.2-.93,.58-1.12,1.15-.2,.57-.3,1.48-.3,2.75v24.8c0,1.27,.1,2.18,.3,2.75,.2,.57,.57,.95,1.12,1.15,.55,.2,1.42,.33,2.62,.4v1c-1.53-.1-3.65-.15-6.35-.15-2.87,0-5,.05-6.4,.15v-1c1.2-.07,2.07-.2,2.62-.4,.55-.2,.92-.58,1.12-1.15,.2-.57,.3-1.48,.3-2.75v-24.8c0-1.27-.1-2.18-.3-2.75-.2-.57-.58-.95-1.12-1.15-.55-.2-1.43-.33-2.62-.4v-1c1.4,.1,3.53,.15,6.4,.15,2.67,0,4.78-.05,6.35-.15v1Z"/><path class="cls-1" d="M422.14,138.8v1c-1.33-.1-3.12-.15-5.35-.15-2.87,0-5,.05-6.4,.15v-1c1.27-.07,2.17-.23,2.72-.48,.55-.25,.83-.71,.83-1.38,0-.57-.2-1.35-.6-2.35l-3.05-8.2h-12.1l-2.05,5.3c-.67,1.8-1,3.17-1,4.1,0,1.03,.36,1.78,1.08,2.25,.72,.47,1.81,.72,3.27,.75v1c-1.9-.1-3.82-.15-5.75-.15-1.5,0-2.75,.05-3.75,.15v-1c1.67-.4,2.98-1.85,3.95-4.35l11.75-30.3h.8l12.2,31.45c.8,2.07,1.95,3.13,3.45,3.2Zm-12.25-13.4l-5.6-14.95-5.7,14.95h11.3Z"/><path class="cls-1" d="M451.59,110.8c0,1.67,.05,3.03,.15,4.1h-1.15c-.27-2.57-.6-4.47-1-5.72-.4-1.25-1.1-2.17-2.1-2.75s-2.53-.88-4.6-.88h-2.7v28.45c0,1.4,.13,2.42,.4,3.05,.27,.63,.73,1.07,1.4,1.3,.67,.23,1.75,.38,3.25,.45v1c-1.73-.1-4.18-.15-7.35-.15-3.33,0-5.8,.05-7.4,.15v-1c1.5-.07,2.58-.22,3.25-.45,.67-.23,1.13-.67,1.4-1.3,.27-.63,.4-1.65,.4-3.05v-28.45h-2.7c-2.07,0-3.6,.29-4.6,.88s-1.7,1.5-2.1,2.75-.73,3.16-1,5.72h-1.15c.1-1.07,.15-2.43,.15-4.1,0-1.9-.12-4.03-.35-6.4,2.77,.1,7.47,.15,14.1,.15s11.28-.05,14.05-.15c-.23,2.37-.35,4.5-.35,6.4Z"/></g><g id="Layer_2-2"><g id="Layer_1-2"><path class="cls-1" d="M555.79,121.93c-.12-.39-.61-1.09-1.08-.75-.07,.04-.11,.13-.09,.21,.04,.21,.21,.33,.32,.51,.17,.27,.19,.61,.05,.9-.23,.5-.8,.83-1.26,1.07-1.09,.56-2.41,.56-3.59,.33-2.19-.44-4.11-1.54-5.91-2.82-.6-.76-1.32-1.41-2.14-1.91-2.22-1.34-4.91-1.65-7.44-1.23-1.84,.32-3.6,1.02-5.16,2.04-.51-.42-1.07-.77-1.67-1.03-1.37-.71-2.91-1.04-4.45-.94-2.62,.14-5.02,1.34-7.09,2.86-3.48,2.55-6.23,6.16-9.86,8.48-1.59-2.12-1.65-5.02-.16-7.21,.76-1.18,1.92-2.06,3.26-2.49,.62-.17,1.38-.19,1.88,.27,.42,.36,.56,.94,.36,1.46-.1,.33,.33,.43,.51,.2,.79-1.16-.56-2.48-1.67-2.61-1.56-.17-3.16,.9-4.12,2.02-2.03,2.42-2.11,5.92-.21,8.44-.61,.38-1.25,.72-1.9,1-4.15,1.82-9.83,1.48-12.4-2.73-1.02-1.67-1.47-3.77-.94-5.69,.67-2.22,2.59-3.84,4.89-4.13,2.15-.24,4.75,1.09,4.2,3.61-.21,.98-1,1.72-2.03,1.58-.85-.12-1.67-.75-1.63-1.67,.02-.56-.87-.56-.87,0-.04,2.37,3.26,3.24,4.67,1.52,.72-.96,.89-2.23,.45-3.35-.49-1.14-1.48-2-2.68-2.34-2.43-.78-5.17,.28-6.72,2.23-1.19,1.58-1.66,3.59-1.29,5.53-.77-.89-1.72-1.59-2.79-2.07-.89-.41-1.88-.61-2.86-.57-.85,.07-1.9,.41-2.27,1.25-.13,.28,.19,.6,.44,.36,1.31-1.23,3.29-1.13,4.82-.35,1.11,.6,2.09,1.41,2.89,2.37,.58,2.05,1.91,3.81,3.71,4.93,2.22,1.34,4.91,1.65,7.44,1.23,1.89-.34,3.69-1.07,5.29-2.14,1.64,1.47,3.82,2.22,6.02,2.06,2.62-.14,5.02-1.34,7.09-2.86,1.29-.98,2.52-2.04,3.68-3.18,2.01-1.93,3.98-3.93,6.33-5.39,.84,.93,1.38,2.1,1.54,3.35,.21,1.39-.06,2.81-.78,4.01-.35,.54-.91,1.06-1.59,1.05-.55,0-1.05-.33-1.23-.85-.13-.31-.55-.09-.51,.19,.18,1.39,2.06,1.49,2.98,.84,1.28-.91,1.76-2.78,1.74-4.27-.04-1.69-.72-3.3-1.9-4.5,.54-.32,1.1-.61,1.67-.86,4.15-1.82,9.83-1.48,12.38,2.73,1.02,1.67,1.47,3.77,.94,5.69-.67,2.23-2.58,3.87-4.9,4.16-2.15,.26-4.75-1.1-4.21-3.61,.21-.98,1-1.72,2.04-1.58,.85,.12,1.67,.75,1.63,1.67-.02,.56,.87,.56,.88,0,.04-2.37-3.26-3.24-4.68-1.52-.72,.96-.89,2.23-.45,3.35,.49,1.15,1.47,2.02,2.68,2.36,2.43,.78,5.16-.28,6.72-2.23,1.4-1.75,1.72-4.06,1.18-6.2-.23-.89-.59-1.74-1.08-2.52,.79,.57,1.62,1.09,2.47,1.56,1.31,.75,2.78,1.18,4.29,1.24,1.34,.03,2.96-.33,3.84-1.43,.4-.45,.54-1.08,.38-1.66Zm-34.72,5.72c-2.09,1.87-4.5,3.55-7.3,4.1-2.39,.47-5.12,.12-7-1.5,3.01-1.96,5.49-4.8,8.17-7.2,2.09-1.87,4.5-3.56,7.3-4.1,1.3-.27,2.65-.27,3.95,0,0,.01,.02,.02,.04,.03,1.09,.21,2.12,.7,2.97,1.41l.03,.03,.02,.02c-3.01,1.96-5.5,4.8-8.18,7.21Z"/></g></g><g id="Layer_2-3"><g id="Layer_1-2-2"><path class="cls-1" d="M73.76,121.93c-.12-.39-.61-1.09-1.08-.75-.07,.04-.11,.13-.09,.21,.04,.21,.21,.33,.32,.51,.17,.27,.19,.61,.05,.9-.23,.5-.8,.83-1.26,1.07-1.09,.56-2.41,.56-3.59,.33-2.19-.44-4.11-1.54-5.91-2.82-.6-.76-1.32-1.41-2.14-1.91-2.22-1.34-4.91-1.65-7.44-1.23-1.84,.32-3.6,1.02-5.16,2.04-.51-.42-1.07-.77-1.67-1.03-1.37-.71-2.91-1.04-4.45-.94-2.62,.14-5.02,1.34-7.09,2.86-3.48,2.55-6.23,6.16-9.86,8.48-1.59-2.12-1.65-5.02-.16-7.21,.76-1.18,1.92-2.06,3.26-2.49,.62-.17,1.38-.19,1.88,.27,.42,.36,.56,.94,.36,1.46-.1,.33,.33,.43,.51,.2,.79-1.16-.56-2.48-1.67-2.61-1.56-.17-3.16,.9-4.12,2.02-2.03,2.42-2.11,5.92-.21,8.44-.61,.38-1.25,.72-1.9,1-4.15,1.82-9.83,1.48-12.4-2.73-1.02-1.67-1.47-3.77-.94-5.69,.67-2.22,2.59-3.84,4.89-4.13,2.15-.24,4.75,1.09,4.2,3.61-.21,.98-1,1.72-2.03,1.58-.85-.12-1.67-.75-1.63-1.67,.02-.56-.87-.56-.87,0-.04,2.37,3.26,3.24,4.67,1.52,.72-.96,.89-2.23,.45-3.35-.49-1.14-1.48-2-2.68-2.34-2.43-.78-5.17,.28-6.72,2.23-1.19,1.58-1.66,3.59-1.29,5.53-.77-.89-1.72-1.59-2.79-2.07-.89-.41-1.88-.61-2.86-.57-.85,.07-1.9,.41-2.27,1.25-.13,.28,.19,.6,.44,.36,1.31-1.23,3.29-1.13,4.82-.35,1.11,.6,2.09,1.41,2.89,2.37,.58,2.05,1.91,3.81,3.71,4.93,2.22,1.34,4.91,1.65,7.44,1.23,1.89-.34,3.69-1.07,5.29-2.14,1.64,1.47,3.82,2.22,6.02,2.06,2.62-.14,5.02-1.34,7.09-2.86,1.29-.98,2.52-2.04,3.68-3.18,2.01-1.93,3.98-3.93,6.33-5.39,.84,.93,1.38,2.1,1.54,3.35,.21,1.39-.06,2.81-.78,4.01-.35,.54-.91,1.06-1.59,1.05-.55,0-1.05-.33-1.23-.85-.13-.31-.55-.09-.51,.19,.18,1.39,2.06,1.49,2.98,.84,1.28-.91,1.76-2.78,1.74-4.27-.04-1.69-.72-3.3-1.9-4.5,.54-.32,1.1-.61,1.67-.86,4.15-1.82,9.83-1.48,12.38,2.73,1.02,1.67,1.47,3.77,.94,5.69-.67,2.23-2.58,3.87-4.9,4.16-2.15,.26-4.75-1.1-4.21-3.61,.21-.98,1-1.72,2.04-1.58,.85,.12,1.67,.75,1.63,1.67-.02,.56,.87,.56,.88,0,.04-2.37-3.26-3.24-4.68-1.52-.72,.96-.89,2.23-.45,3.35,.49,1.15,1.47,2.02,2.68,2.36,2.43,.78,5.16-.28,6.72-2.23,1.4-1.75,1.72-4.06,1.18-6.2-.23-.89-.59-1.74-1.08-2.52,.79,.57,1.62,1.09,2.47,1.56,1.31,.75,2.78,1.18,4.29,1.24,1.34,.03,2.96-.33,3.84-1.43,.4-.45,.54-1.08,.38-1.66Zm-34.72,5.72c-2.09,1.87-4.5,3.55-7.3,4.1-2.39,.47-5.12,.12-7-1.5,3.01-1.96,5.49-4.8,8.17-7.2,2.09-1.87,4.5-3.56,7.3-4.1,1.3-.27,2.65-.27,3.95,0,0,.01,.02,.02,.04,.03,1.09,.21,2.12,.7,2.97,1.41l.03,.03,.02,.02c-3.01,1.96-5.5,4.8-8.18,7.21Z"/></g></g></g><path class="cls-1" d="M239.82,0V76.21h76.21V0h-76.21Zm49.96,62.52c-3.08,2.54-6.98,3.81-11.7,3.81-2.46,0-4.48-.26-6.04-.77-1.57-.51-3.07-1.21-4.5-2.08-1.13-.72-2-1.08-2.62-1.08-.46,0-.82,.27-1.08,.81-.26,.54-.46,1.4-.62,2.58h-1.77c.2-2.82,.31-8.98,.31-18.47h1.77c.36,5.18,1.64,9.39,3.85,12.62,2.21,3.23,5.59,4.85,10.16,4.85,2.77,0,5.13-.86,7.08-2.58,1.95-1.72,2.92-4.27,2.92-7.66,0-2.87-.96-5.31-2.89-7.31s-4.97-4.26-9.12-6.77c-3.03-1.85-5.48-3.49-7.35-4.93-1.87-1.44-3.4-3.17-4.58-5.2-1.18-2.03-1.77-4.4-1.77-7.12,0-4.31,1.39-7.61,4.16-9.89,2.77-2.28,6.21-3.42,10.31-3.42,2.26,0,4.04,.24,5.35,.73,1.31,.49,2.66,1.19,4.04,2.12,1.13,.72,2,1.08,2.62,1.08,.46,0,.82-.27,1.08-.81,.26-.54,.46-1.4,.62-2.58h1.77c-.26,2.98-.38,8.21-.38,15.7h-1.77c-.31-4.16-1.5-7.66-3.58-10.51-2.08-2.85-5.09-4.27-9.04-4.27-2.77,0-5.03,.83-6.77,2.5-1.75,1.67-2.62,3.81-2.62,6.43,0,1.95,.45,3.64,1.35,5.08,.9,1.44,2.04,2.67,3.43,3.7,1.39,1.03,3.36,2.33,5.93,3.93l2.23,1.39c3.23,2,5.79,3.76,7.66,5.27,1.87,1.51,3.37,3.25,4.5,5.2,1.13,1.95,1.69,4.23,1.69,6.85,0,4.67-1.54,8.27-4.62,10.81Z"/></g></svg>