<svg class="logo w-36" viewBox="0 0 1059.77 340.64">
  <defs> <style> .cls-1 { fill: #3b77c6; } </style> </defs>
  <g id="Layer_1-2" data-name="Layer 1">
    <g>
      <path class="cls-1" d="M170.32,0C76.25,0,0,76.25,0,170.32s76.25,170.32,170.32,170.32,170.32-76.25,170.32-170.32S264.38,0,170.32,0Zm1.69,305.23c-75.44,0-136.59-61.15-136.59-136.59S96.57,32.04,172.01,32.04s136.59,61.15,136.59,136.59-61.15,136.59-136.59,136.59Z"/>
      <g>
        <path d="M486.35,156.86h-28.45l-17.75-73h4.28l-17.75,73h-28.61l-23.86-104.62h27.18l12.6,73.39h-.32l19.66-73.39h17.83l19.74,73.39h-.32l12.6-73.39h27.18l-24.01,104.62Z"/>
        <path d="M524.24,52.24h66.81v20.77h-43.2v21.32h42.8v20.13h-42.8v21.64h43.2v20.77h-66.81V52.24Z"/>
        <path d="M609.2,52.24h31.47c11.15,0,20.38,2.23,27.7,6.7,7.32,4.47,12.8,10.63,16.45,18.51,3.65,7.87,5.47,16.88,5.47,27.03s-1.82,19.23-5.47,27.11c-3.65,7.87-9.13,14.06-16.45,18.55-7.32,4.49-16.55,6.74-27.7,6.74h-31.47V52.24Zm23.62,21v62.61h5.71c5.97,0,10.91-1.36,14.82-4.08,3.91-2.72,6.86-6.45,8.84-11.18,1.98-4.73,2.97-10.05,2.97-15.97s-.96-11.32-2.89-16.05c-1.93-4.73-4.87-8.47-8.84-11.21-3.96-2.75-8.93-4.12-14.9-4.12h-5.71Z"/>
        <path d="M704.38,52.24h31.47c11.15,0,20.38,2.23,27.7,6.7,7.32,4.47,12.8,10.63,16.45,18.51,3.65,7.87,5.47,16.88,5.47,27.03s-1.82,19.23-5.47,27.11c-3.65,7.87-9.13,14.06-16.45,18.55-7.32,4.49-16.55,6.74-27.7,6.74h-31.47V52.24Zm23.62,21v62.61h5.71c5.97,0,10.91-1.36,14.82-4.08,3.91-2.72,6.86-6.45,8.84-11.18,1.98-4.73,2.97-10.05,2.97-15.97s-.96-11.32-2.89-16.05c-1.93-4.73-4.87-8.47-8.84-11.21-3.96-2.75-8.93-4.12-14.9-4.12h-5.71Z"/>
        <path d="M800.21,52.24h23.7v104.62h-23.7V52.24Z"/>
        <path d="M864.17,73.96l1.74,.32v82.59h-23.7V52.24h32.34l42.4,82.43-1.74,.32V52.24h23.7v104.62h-32.5l-42.24-82.9Z"/>
        <path d="M1006.43,98.37h53.34v6.66c0,7.5-1.26,14.51-3.77,21-2.51,6.5-6.09,12.21-10.74,17.12-4.65,4.91-10.2,8.74-16.65,11.49-6.44,2.75-13.58,4.12-21.4,4.12s-15.42-1.39-21.99-4.16c-6.58-2.77-12.25-6.64-17-11.61s-8.4-10.74-10.94-17.32c-2.54-6.58-3.8-13.65-3.8-21.2s1.27-14.54,3.8-21.12c2.54-6.58,6.18-12.34,10.94-17.28,4.76-4.94,10.42-8.8,17-11.57,6.58-2.77,13.91-4.16,21.99-4.16,6.6,0,12.43,.71,17.48,2.14,5.05,1.43,9.39,3.33,13.04,5.71,3.65,2.38,6.74,4.98,9.27,7.81,2.54,2.83,4.65,5.59,6.34,8.28l-22.51,10.62c-2.17-3.33-5.11-6.23-8.83-8.72-3.73-2.48-8.65-3.73-14.78-3.73-4.28,0-8.2,.84-11.77,2.54s-6.64,4-9.23,6.93c-2.59,2.93-4.58,6.34-5.98,10.22-1.4,3.88-2.1,7.99-2.1,12.32s.7,8.51,2.1,12.36c1.4,3.86,3.4,7.27,5.98,10.23,2.59,2.96,5.67,5.27,9.23,6.93s7.49,2.5,11.77,2.5c3.75,0,7.16-.48,10.23-1.43,3.06-.95,5.72-2.33,7.96-4.12,2.25-1.8,4.02-3.92,5.31-6.38,1.3-2.46,2.07-5.16,2.34-8.12h-26.63v-18.07Z"/>
      </g>
      <g>
        <path class="cls-1" d="M486.35,183.78h-28.45l-17.75,73h4.28l-17.75-73h-28.61l-23.86,104.62h27.18l12.6-73.39h-.32l19.66,73.39h17.83l19.74-73.39h-.32l12.6,73.39h27.18l-24.01-104.62Z"/>
        <path class="cls-1" d="M525.77,183.78h23.7v104.62h-23.7v-104.62Z"/>
        <path class="cls-1" d="M589.73,205.49l1.74,.32v82.59h-23.7v-104.62h32.34l42.4,82.43-1.74,.32v-82.75h23.7v104.62h-32.5l-42.24-82.9Z"/>
        <path class="cls-1" d="M742.85,183.78h23.7v64.28c0,8.61-1.69,16.08-5.07,22.39-3.38,6.31-8.22,11.2-14.5,14.66-6.29,3.46-13.79,5.19-22.51,5.19s-16.33-1.73-22.67-5.19-11.19-8.35-14.54-14.66c-3.35-6.31-5.03-13.78-5.03-22.39v-64.28h23.62v63.01c0,4.75,.75,8.77,2.26,12.05,1.51,3.28,3.66,5.75,6.46,7.41,2.8,1.66,6.1,2.5,9.91,2.5s7-.83,9.75-2.5c2.75-1.66,4.87-4.13,6.38-7.41,1.51-3.28,2.26-7.29,2.26-12.05v-63.01Z"/>
        <path class="cls-1" d="M802.77,204.54h-24.97v-20.77h73.55v20.77h-24.89v83.85h-23.7v-83.85Z"/>
        <path class="cls-1" d="M864.11,183.78h66.81v20.77h-43.2v21.32h42.8v20.13h-42.8v21.64h43.2v20.77h-66.81v-104.62Z"/>
      </g>
    </g>
  </g>
</svg>